<?xml version="1.0" standalone="no"?>
<!DOCTYPE svg PUBLIC "-//W3C//DTD SVG 20010904//EN"
 "http://www.w3.org/TR/2001/REC-SVG-20010904/DTD/svg10.dtd">
<svg version="1.0" xmlns="http://www.w3.org/2000/svg"
 width="512.000000pt" height="512.000000pt" viewBox="0 0 512.000000 512.000000"
 preserveAspectRatio="xMidYMid meet">
<metadata>
Created by potrace 1.14, written by Peter Selinger 2001-2017
</metadata>
<g transform="translate(0.000000,512.000000) scale(0.100000,-0.100000)"
fill="#000000" stroke="none">
<path d="M2552 4588 c-27 -33 -482 -793 -480 -800 2 -5 71 -36 153 -68 83 -32
177 -70 210 -84 42 -18 78 -26 123 -26 l62 0 0 445 0 446 -29 50 c-21 38 -31
47 -39 37z"/>
<path d="M1778 3310 c-76 -125 -138 -232 -138 -237 1 -14 894 -503 920 -503
13 0 143 66 289 147 335 185 614 342 624 352 9 9 -259 460 -277 467 -7 3 -37
-5 -67 -17 -185 -73 -554 -209 -568 -209 -9 0 -151 52 -314 115 -164 63 -306
115 -315 115 -11 -1 -64 -78 -154 -230z"/>
<path d="M1476 2808 c-88 -140 -266 -442 -264 -449 3 -7 668 -416 1175 -723
149 -90 165 -97 192 -88 21 8 1308 789 1330 808 4 4 -242 417 -272 458 -13 18
-30 10 -358 -162 -623 -326 -693 -362 -718 -362 -25 0 -141 58 -720 364 -183
97 -337 176 -342 176 -5 0 -15 -10 -23 -22z"/>
<path d="M917 1877 c-81 -134 -147 -248 -147 -253 1 -10 1734 -1093 1774
-1108 22 -8 80 25 478 274 943 589 1328 832 1324 839 -16 29 -272 460 -281
473 -13 19 75 69 -967 -540 -284 -166 -526 -302 -538 -302 -12 0 -221 117
-463 259 -243 142 -570 334 -727 426 -157 92 -290 169 -296 172 -6 2 -76 -106
-157 -240z"/>
</g>
</svg>
